<mxfile host="app.diagrams.net" modified="2023-12-23T19:45:37.446Z" agent="Mozilla/5.0 (Windows NT 10.0; Win64; x64; rv:121.0) Gecko/20100101 Firefox/121.0" etag="8eBC0m32m46gOal2zgD0" version="22.1.11" type="device">
  <diagram id="C5RBs43oDa-KdzZeNtuy" name="Page-1">
    <mxGraphModel dx="1235" dy="655" grid="1" gridSize="10" guides="1" tooltips="1" connect="1" arrows="1" fold="1" page="1" pageScale="1" pageWidth="827" pageHeight="1169" math="0" shadow="0">
      <root>
        <mxCell id="WIyWlLk6GJQsqaUBKTNV-0" />
        <mxCell id="WIyWlLk6GJQsqaUBKTNV-1" parent="WIyWlLk6GJQsqaUBKTNV-0" />
        <mxCell id="SE_fmQJEgkqWt3eJjdSE-33" style="edgeStyle=orthogonalEdgeStyle;rounded=0;orthogonalLoop=1;jettySize=auto;html=1;endArrow=open;endFill=0;dashed=1;" edge="1" parent="WIyWlLk6GJQsqaUBKTNV-1" source="zkfFHV4jXpPFQw0GAbJ--0" target="SE_fmQJEgkqWt3eJjdSE-0">
          <mxGeometry relative="1" as="geometry" />
        </mxCell>
        <mxCell id="zkfFHV4jXpPFQw0GAbJ--0" value="UserProfile" style="swimlane;fontStyle=1;align=center;verticalAlign=top;childLayout=stackLayout;horizontal=1;startSize=26;horizontalStack=0;resizeParent=1;resizeLast=0;collapsible=1;marginBottom=0;rounded=0;shadow=0;strokeWidth=1;" parent="WIyWlLk6GJQsqaUBKTNV-1" vertex="1">
          <mxGeometry x="830" y="345" width="160" height="90" as="geometry">
            <mxRectangle x="230" y="140" width="160" height="26" as="alternateBounds" />
          </mxGeometry>
        </mxCell>
        <mxCell id="zkfFHV4jXpPFQw0GAbJ--1" value="+ login: String" style="text;align=left;verticalAlign=top;spacingLeft=4;spacingRight=4;overflow=hidden;rotatable=0;points=[[0,0.5],[1,0.5]];portConstraint=eastwest;" parent="zkfFHV4jXpPFQw0GAbJ--0" vertex="1">
          <mxGeometry y="26" width="160" height="26" as="geometry" />
        </mxCell>
        <mxCell id="zkfFHV4jXpPFQw0GAbJ--2" value="+ pwd: String" style="text;align=left;verticalAlign=top;spacingLeft=4;spacingRight=4;overflow=hidden;rotatable=0;points=[[0,0.5],[1,0.5]];portConstraint=eastwest;rounded=0;shadow=0;html=0;" parent="zkfFHV4jXpPFQw0GAbJ--0" vertex="1">
          <mxGeometry y="52" width="160" height="26" as="geometry" />
        </mxCell>
        <mxCell id="SE_fmQJEgkqWt3eJjdSE-36" style="edgeStyle=orthogonalEdgeStyle;rounded=0;orthogonalLoop=1;jettySize=auto;html=1;endArrow=diamondThin;endFill=0;" edge="1" parent="WIyWlLk6GJQsqaUBKTNV-1" source="SE_fmQJEgkqWt3eJjdSE-0" target="SE_fmQJEgkqWt3eJjdSE-22">
          <mxGeometry relative="1" as="geometry">
            <Array as="points">
              <mxPoint x="490" y="410" />
              <mxPoint x="490" y="200" />
            </Array>
          </mxGeometry>
        </mxCell>
        <mxCell id="SE_fmQJEgkqWt3eJjdSE-0" value="&lt;p style=&quot;margin:0px;margin-top:4px;text-align:center;&quot;&gt;&lt;i&gt;&amp;lt;&amp;lt;Interface&amp;gt;&amp;gt;&lt;/i&gt;&lt;br&gt;&lt;b&gt;UserProfileDao&lt;/b&gt;&lt;br&gt;&lt;/p&gt;&lt;hr size=&quot;1&quot;&gt;&lt;hr size=&quot;1&quot;&gt;&lt;p style=&quot;margin:0px;margin-left:4px;&quot;&gt;+ existsUserByLogin(String): Boolean&lt;/p&gt;&lt;p style=&quot;margin:0px;margin-left:4px;&quot;&gt;&lt;br&gt;&lt;/p&gt;&lt;p style=&quot;margin:0px;margin-left:4px;&quot;&gt;+ getUserByLogin(String): UserProfile&lt;/p&gt;&lt;p style=&quot;margin:0px;margin-left:4px;&quot;&gt;&lt;br&gt;&lt;/p&gt;&lt;p style=&quot;margin:0px;margin-left:4px;&quot;&gt;+ saveUserProfile(UserProfile): Void&lt;br&gt;&lt;/p&gt;" style="verticalAlign=top;align=left;overflow=fill;fontSize=12;fontFamily=Helvetica;html=1;whiteSpace=wrap;" vertex="1" parent="WIyWlLk6GJQsqaUBKTNV-1">
          <mxGeometry x="520" y="320" width="240" height="140" as="geometry" />
        </mxCell>
        <mxCell id="SE_fmQJEgkqWt3eJjdSE-9" value="&lt;p style=&quot;margin:0px;margin-top:4px;text-align:center;&quot;&gt;&lt;i&gt;&amp;lt;&amp;lt;Interface&amp;gt;&amp;gt;&lt;/i&gt;&lt;br&gt;&lt;b&gt;UserProfileService&lt;/b&gt;&lt;br&gt;&lt;/p&gt;&lt;hr size=&quot;1&quot;&gt;&lt;hr size=&quot;1&quot;&gt;&lt;p style=&quot;margin:0px;margin-left:4px;&quot;&gt;+ authorize(String, String): Boolean&lt;/p&gt;&lt;p style=&quot;margin:0px;margin-left:4px;&quot;&gt;&lt;br&gt;&lt;/p&gt;&lt;p style=&quot;margin:0px;margin-left:4px;&quot;&gt;+ register(String, String): Boolean&lt;/p&gt;" style="verticalAlign=top;align=left;overflow=fill;fontSize=12;fontFamily=Helvetica;html=1;whiteSpace=wrap;" vertex="1" parent="WIyWlLk6GJQsqaUBKTNV-1">
          <mxGeometry x="130" y="290" width="320" height="110" as="geometry" />
        </mxCell>
        <mxCell id="SE_fmQJEgkqWt3eJjdSE-18" style="edgeStyle=orthogonalEdgeStyle;rounded=0;orthogonalLoop=1;jettySize=auto;html=1;dashed=1;endArrow=block;endFill=0;" edge="1" parent="WIyWlLk6GJQsqaUBKTNV-1" source="SE_fmQJEgkqWt3eJjdSE-13" target="SE_fmQJEgkqWt3eJjdSE-0">
          <mxGeometry relative="1" as="geometry" />
        </mxCell>
        <mxCell id="SE_fmQJEgkqWt3eJjdSE-13" value="UserProfileDaoImpl" style="swimlane;fontStyle=1;align=center;verticalAlign=top;childLayout=stackLayout;horizontal=1;startSize=26;horizontalStack=0;resizeParent=1;resizeParentMax=0;resizeLast=0;collapsible=1;marginBottom=0;whiteSpace=wrap;html=1;" vertex="1" parent="WIyWlLk6GJQsqaUBKTNV-1">
          <mxGeometry x="520" y="100" width="240" height="160" as="geometry" />
        </mxCell>
        <mxCell id="SE_fmQJEgkqWt3eJjdSE-14" value="- WORKDIR: String = &quot;user_profiles&quot;" style="text;strokeColor=none;fillColor=none;align=left;verticalAlign=top;spacingLeft=4;spacingRight=4;overflow=hidden;rotatable=0;points=[[0,0.5],[1,0.5]];portConstraint=eastwest;whiteSpace=wrap;html=1;" vertex="1" parent="SE_fmQJEgkqWt3eJjdSE-13">
          <mxGeometry y="26" width="240" height="26" as="geometry" />
        </mxCell>
        <mxCell id="SE_fmQJEgkqWt3eJjdSE-15" value="" style="line;strokeWidth=1;fillColor=none;align=left;verticalAlign=middle;spacingTop=-1;spacingLeft=3;spacingRight=3;rotatable=0;labelPosition=right;points=[];portConstraint=eastwest;strokeColor=inherit;" vertex="1" parent="SE_fmQJEgkqWt3eJjdSE-13">
          <mxGeometry y="52" width="240" height="8" as="geometry" />
        </mxCell>
        <mxCell id="SE_fmQJEgkqWt3eJjdSE-16" value="+ existsUserByLogin(login: String): Boolean&lt;br&gt;&lt;br&gt;+ getUserByLogin(login: String): UserProfile&lt;br&gt;&lt;br&gt;+ saveUserProfile(user: UserProfile): Void&lt;div&gt;&lt;br&gt;&lt;br&gt;&lt;/div&gt;" style="text;strokeColor=none;fillColor=none;align=left;verticalAlign=top;spacingLeft=4;spacingRight=4;overflow=hidden;rotatable=0;points=[[0,0.5],[1,0.5]];portConstraint=eastwest;whiteSpace=wrap;html=1;" vertex="1" parent="SE_fmQJEgkqWt3eJjdSE-13">
          <mxGeometry y="60" width="240" height="100" as="geometry" />
        </mxCell>
        <mxCell id="SE_fmQJEgkqWt3eJjdSE-23" style="edgeStyle=orthogonalEdgeStyle;rounded=0;orthogonalLoop=1;jettySize=auto;html=1;dashed=1;endArrow=block;endFill=0;" edge="1" parent="WIyWlLk6GJQsqaUBKTNV-1" source="SE_fmQJEgkqWt3eJjdSE-19" target="SE_fmQJEgkqWt3eJjdSE-9">
          <mxGeometry relative="1" as="geometry" />
        </mxCell>
        <mxCell id="SE_fmQJEgkqWt3eJjdSE-19" value="UserProfileServiceImpl" style="swimlane;fontStyle=1;align=center;verticalAlign=top;childLayout=stackLayout;horizontal=1;startSize=26;horizontalStack=0;resizeParent=1;resizeParentMax=0;resizeLast=0;collapsible=1;marginBottom=0;whiteSpace=wrap;html=1;" vertex="1" parent="WIyWlLk6GJQsqaUBKTNV-1">
          <mxGeometry x="130" y="90" width="320" height="160" as="geometry" />
        </mxCell>
        <mxCell id="SE_fmQJEgkqWt3eJjdSE-20" value="- dao: UserProfileDao" style="text;strokeColor=none;fillColor=none;align=left;verticalAlign=top;spacingLeft=4;spacingRight=4;overflow=hidden;rotatable=0;points=[[0,0.5],[1,0.5]];portConstraint=eastwest;whiteSpace=wrap;html=1;" vertex="1" parent="SE_fmQJEgkqWt3eJjdSE-19">
          <mxGeometry y="26" width="320" height="26" as="geometry" />
        </mxCell>
        <mxCell id="SE_fmQJEgkqWt3eJjdSE-21" value="" style="line;strokeWidth=1;fillColor=none;align=left;verticalAlign=middle;spacingTop=-1;spacingLeft=3;spacingRight=3;rotatable=0;labelPosition=right;points=[];portConstraint=eastwest;strokeColor=inherit;" vertex="1" parent="SE_fmQJEgkqWt3eJjdSE-19">
          <mxGeometry y="52" width="320" height="8" as="geometry" />
        </mxCell>
        <mxCell id="SE_fmQJEgkqWt3eJjdSE-22" value="&lt;p style=&quot;margin:0px;margin-left:4px;&quot;&gt;+ authorize(login: String, password: String): Boolean&lt;/p&gt;&lt;p style=&quot;margin:0px;margin-left:4px;&quot;&gt;&lt;br&gt;&lt;/p&gt;&lt;p style=&quot;margin:0px;margin-left:4px;&quot;&gt;+ register(login: String, password: String): Boolean&lt;/p&gt;&lt;p style=&quot;margin:0px;margin-left:4px;&quot;&gt;&lt;br&gt;&lt;/p&gt;&lt;p style=&quot;margin:0px;margin-left:4px;&quot;&gt;- mkSHA1(password: String): String&lt;br&gt;&lt;/p&gt;" style="text;strokeColor=none;fillColor=none;align=left;verticalAlign=top;spacingLeft=4;spacingRight=4;overflow=hidden;rotatable=0;points=[[0,0.5],[1,0.5]];portConstraint=eastwest;whiteSpace=wrap;html=1;" vertex="1" parent="SE_fmQJEgkqWt3eJjdSE-19">
          <mxGeometry y="60" width="320" height="100" as="geometry" />
        </mxCell>
        <mxCell id="SE_fmQJEgkqWt3eJjdSE-31" style="edgeStyle=orthogonalEdgeStyle;rounded=0;orthogonalLoop=1;jettySize=auto;html=1;endArrow=block;endFill=0;" edge="1" parent="WIyWlLk6GJQsqaUBKTNV-1" source="SE_fmQJEgkqWt3eJjdSE-24" target="SE_fmQJEgkqWt3eJjdSE-28">
          <mxGeometry relative="1" as="geometry" />
        </mxCell>
        <mxCell id="SE_fmQJEgkqWt3eJjdSE-34" style="edgeStyle=orthogonalEdgeStyle;rounded=0;orthogonalLoop=1;jettySize=auto;html=1;dashed=1;endArrow=open;endFill=0;" edge="1" parent="WIyWlLk6GJQsqaUBKTNV-1" source="SE_fmQJEgkqWt3eJjdSE-24" target="SE_fmQJEgkqWt3eJjdSE-16">
          <mxGeometry relative="1" as="geometry" />
        </mxCell>
        <mxCell id="SE_fmQJEgkqWt3eJjdSE-24" value="UserProfileNotExists" style="swimlane;fontStyle=1;align=center;verticalAlign=top;childLayout=stackLayout;horizontal=1;startSize=26;horizontalStack=0;resizeParent=1;resizeLast=0;collapsible=1;marginBottom=0;rounded=0;shadow=0;strokeWidth=1;" vertex="1" parent="WIyWlLk6GJQsqaUBKTNV-1">
          <mxGeometry x="830" y="120" width="160" height="60" as="geometry">
            <mxRectangle x="230" y="140" width="160" height="26" as="alternateBounds" />
          </mxGeometry>
        </mxCell>
        <mxCell id="SE_fmQJEgkqWt3eJjdSE-25" value="- msg: String" style="text;align=left;verticalAlign=top;spacingLeft=4;spacingRight=4;overflow=hidden;rotatable=0;points=[[0,0.5],[1,0.5]];portConstraint=eastwest;" vertex="1" parent="SE_fmQJEgkqWt3eJjdSE-24">
          <mxGeometry y="26" width="160" height="26" as="geometry" />
        </mxCell>
        <mxCell id="SE_fmQJEgkqWt3eJjdSE-28" value="FileNotFoundException" style="swimlane;fontStyle=1;align=center;verticalAlign=top;childLayout=stackLayout;horizontal=1;startSize=26;horizontalStack=0;resizeParent=1;resizeLast=0;collapsible=1;marginBottom=0;rounded=0;shadow=0;strokeWidth=1;" vertex="1" parent="WIyWlLk6GJQsqaUBKTNV-1">
          <mxGeometry x="830" y="230" width="160" height="50" as="geometry">
            <mxRectangle x="230" y="140" width="160" height="26" as="alternateBounds" />
          </mxGeometry>
        </mxCell>
        <mxCell id="SE_fmQJEgkqWt3eJjdSE-29" value="..." style="text;align=left;verticalAlign=top;spacingLeft=4;spacingRight=4;overflow=hidden;rotatable=0;points=[[0,0.5],[1,0.5]];portConstraint=eastwest;" vertex="1" parent="SE_fmQJEgkqWt3eJjdSE-28">
          <mxGeometry y="26" width="160" height="24" as="geometry" />
        </mxCell>
        <mxCell id="SE_fmQJEgkqWt3eJjdSE-37" value="auth" style="shape=umlFrame;whiteSpace=wrap;html=1;pointerEvents=0;" vertex="1" parent="WIyWlLk6GJQsqaUBKTNV-1">
          <mxGeometry x="90" y="30" width="940" height="480" as="geometry" />
        </mxCell>
        <mxCell id="SE_fmQJEgkqWt3eJjdSE-54" style="edgeStyle=orthogonalEdgeStyle;rounded=0;orthogonalLoop=1;jettySize=auto;html=1;endArrow=open;endFill=0;dashed=1;" edge="1" source="SE_fmQJEgkqWt3eJjdSE-55" target="SE_fmQJEgkqWt3eJjdSE-58" parent="WIyWlLk6GJQsqaUBKTNV-1">
          <mxGeometry relative="1" as="geometry" />
        </mxCell>
        <mxCell id="SE_fmQJEgkqWt3eJjdSE-135" style="edgeStyle=orthogonalEdgeStyle;rounded=0;orthogonalLoop=1;jettySize=auto;html=1;entryX=0.5;entryY=0;entryDx=0;entryDy=0;endArrow=diamondThin;endFill=0;" edge="1" parent="WIyWlLk6GJQsqaUBKTNV-1" source="SE_fmQJEgkqWt3eJjdSE-55" target="SE_fmQJEgkqWt3eJjdSE-92">
          <mxGeometry relative="1" as="geometry">
            <Array as="points">
              <mxPoint x="1640" y="80" />
              <mxPoint x="2340" y="80" />
            </Array>
          </mxGeometry>
        </mxCell>
        <mxCell id="SE_fmQJEgkqWt3eJjdSE-55" value="Film" style="swimlane;fontStyle=1;align=center;verticalAlign=top;childLayout=stackLayout;horizontal=1;startSize=26;horizontalStack=0;resizeParent=1;resizeLast=0;collapsible=1;marginBottom=0;rounded=0;shadow=0;strokeWidth=1;" vertex="1" parent="WIyWlLk6GJQsqaUBKTNV-1">
          <mxGeometry x="1560" y="335" width="160" height="156" as="geometry">
            <mxRectangle x="230" y="140" width="160" height="26" as="alternateBounds" />
          </mxGeometry>
        </mxCell>
        <mxCell id="SE_fmQJEgkqWt3eJjdSE-56" value="+ id: Long" style="text;align=left;verticalAlign=top;spacingLeft=4;spacingRight=4;overflow=hidden;rotatable=0;points=[[0,0.5],[1,0.5]];portConstraint=eastwest;" vertex="1" parent="SE_fmQJEgkqWt3eJjdSE-55">
          <mxGeometry y="26" width="160" height="26" as="geometry" />
        </mxCell>
        <mxCell id="SE_fmQJEgkqWt3eJjdSE-57" value="+ title: String" style="text;align=left;verticalAlign=top;spacingLeft=4;spacingRight=4;overflow=hidden;rotatable=0;points=[[0,0.5],[1,0.5]];portConstraint=eastwest;rounded=0;shadow=0;html=0;" vertex="1" parent="SE_fmQJEgkqWt3eJjdSE-55">
          <mxGeometry y="52" width="160" height="26" as="geometry" />
        </mxCell>
        <mxCell id="SE_fmQJEgkqWt3eJjdSE-70" value="+ description: String" style="text;align=left;verticalAlign=top;spacingLeft=4;spacingRight=4;overflow=hidden;rotatable=0;points=[[0,0.5],[1,0.5]];portConstraint=eastwest;rounded=0;shadow=0;html=0;" vertex="1" parent="SE_fmQJEgkqWt3eJjdSE-55">
          <mxGeometry y="78" width="160" height="26" as="geometry" />
        </mxCell>
        <mxCell id="SE_fmQJEgkqWt3eJjdSE-71" value="+ length: Long" style="text;align=left;verticalAlign=top;spacingLeft=4;spacingRight=4;overflow=hidden;rotatable=0;points=[[0,0.5],[1,0.5]];portConstraint=eastwest;rounded=0;shadow=0;html=0;" vertex="1" parent="SE_fmQJEgkqWt3eJjdSE-55">
          <mxGeometry y="104" width="160" height="26" as="geometry" />
        </mxCell>
        <mxCell id="SE_fmQJEgkqWt3eJjdSE-72" value="+ cost: Int" style="text;align=left;verticalAlign=top;spacingLeft=4;spacingRight=4;overflow=hidden;rotatable=0;points=[[0,0.5],[1,0.5]];portConstraint=eastwest;rounded=0;shadow=0;html=0;" vertex="1" parent="SE_fmQJEgkqWt3eJjdSE-55">
          <mxGeometry y="130" width="160" height="26" as="geometry" />
        </mxCell>
        <mxCell id="SE_fmQJEgkqWt3eJjdSE-124" style="edgeStyle=orthogonalEdgeStyle;rounded=0;orthogonalLoop=1;jettySize=auto;html=1;endArrow=diamondThin;endFill=0;" edge="1" parent="WIyWlLk6GJQsqaUBKTNV-1" source="SE_fmQJEgkqWt3eJjdSE-58" target="SE_fmQJEgkqWt3eJjdSE-110">
          <mxGeometry relative="1" as="geometry">
            <Array as="points">
              <mxPoint x="1220" y="400" />
              <mxPoint x="1220" y="749" />
            </Array>
          </mxGeometry>
        </mxCell>
        <mxCell id="SE_fmQJEgkqWt3eJjdSE-58" value="&lt;p style=&quot;margin:0px;margin-top:4px;text-align:center;&quot;&gt;&lt;i&gt;&amp;lt;&amp;lt;Interface&amp;gt;&amp;gt;&lt;/i&gt;&lt;br&gt;&lt;b&gt;FilmDao&lt;/b&gt;&lt;br&gt;&lt;/p&gt;&lt;hr size=&quot;1&quot;&gt;&lt;hr size=&quot;1&quot;&gt;&lt;p style=&quot;margin:0px;margin-left:4px;&quot;&gt;+ findById(Long): Film&lt;/p&gt;&lt;p style=&quot;margin:0px;margin-left:4px;&quot;&gt;&lt;br&gt;&lt;/p&gt;&lt;p style=&quot;margin:0px;margin-left:4px;&quot;&gt;+ removeById(Long): Boolean&lt;/p&gt;&lt;p style=&quot;margin:0px;margin-left:4px;&quot;&gt;&lt;br&gt;&lt;/p&gt;&lt;p style=&quot;margin:0px;margin-left:4px;&quot;&gt;+ save(Film): Void&lt;/p&gt;&lt;p style=&quot;margin:0px;margin-left:4px;&quot;&gt;&lt;br&gt;&lt;/p&gt;&lt;p style=&quot;margin:0px;margin-left:4px;&quot;&gt;+ listExisting(): List&amp;lt;Film&amp;gt;&lt;br&gt;&lt;/p&gt;" style="verticalAlign=top;align=left;overflow=fill;fontSize=12;fontFamily=Helvetica;html=1;whiteSpace=wrap;" vertex="1" parent="WIyWlLk6GJQsqaUBKTNV-1">
          <mxGeometry x="1260" y="323" width="240" height="180" as="geometry" />
        </mxCell>
        <mxCell id="SE_fmQJEgkqWt3eJjdSE-59" style="edgeStyle=orthogonalEdgeStyle;rounded=0;orthogonalLoop=1;jettySize=auto;html=1;dashed=1;endArrow=block;endFill=0;" edge="1" source="SE_fmQJEgkqWt3eJjdSE-60" target="SE_fmQJEgkqWt3eJjdSE-58" parent="WIyWlLk6GJQsqaUBKTNV-1">
          <mxGeometry relative="1" as="geometry" />
        </mxCell>
        <mxCell id="SE_fmQJEgkqWt3eJjdSE-60" value="FilmDaoImpl" style="swimlane;fontStyle=1;align=center;verticalAlign=top;childLayout=stackLayout;horizontal=1;startSize=26;horizontalStack=0;resizeParent=1;resizeParentMax=0;resizeLast=0;collapsible=1;marginBottom=0;whiteSpace=wrap;html=1;" vertex="1" parent="WIyWlLk6GJQsqaUBKTNV-1">
          <mxGeometry x="1260" y="90" width="240" height="190" as="geometry" />
        </mxCell>
        <mxCell id="SE_fmQJEgkqWt3eJjdSE-61" value="- WORKDIR: String = &quot;films&quot;" style="text;strokeColor=none;fillColor=none;align=left;verticalAlign=top;spacingLeft=4;spacingRight=4;overflow=hidden;rotatable=0;points=[[0,0.5],[1,0.5]];portConstraint=eastwest;whiteSpace=wrap;html=1;" vertex="1" parent="SE_fmQJEgkqWt3eJjdSE-60">
          <mxGeometry y="26" width="240" height="26" as="geometry" />
        </mxCell>
        <mxCell id="SE_fmQJEgkqWt3eJjdSE-62" value="" style="line;strokeWidth=1;fillColor=none;align=left;verticalAlign=middle;spacingTop=-1;spacingLeft=3;spacingRight=3;rotatable=0;labelPosition=right;points=[];portConstraint=eastwest;strokeColor=inherit;" vertex="1" parent="SE_fmQJEgkqWt3eJjdSE-60">
          <mxGeometry y="52" width="240" height="8" as="geometry" />
        </mxCell>
        <mxCell id="SE_fmQJEgkqWt3eJjdSE-63" value="&amp;nbsp;+ findById(id: Long): Film&lt;p style=&quot;margin:0px;margin-left:4px;&quot;&gt;&lt;br&gt;&lt;/p&gt;&lt;p style=&quot;margin:0px;margin-left:4px;&quot;&gt;+ removeById(id: Long): Boolean&lt;/p&gt;&lt;p style=&quot;margin:0px;margin-left:4px;&quot;&gt;&lt;br&gt;&lt;/p&gt;&lt;p style=&quot;margin:0px;margin-left:4px;&quot;&gt;+ save(film: Film): Void&lt;/p&gt;&lt;p style=&quot;margin:0px;margin-left:4px;&quot;&gt;&lt;br&gt;&lt;/p&gt;+ listExisting(): List&amp;lt;Film&amp;gt;" style="text;strokeColor=none;fillColor=none;align=left;verticalAlign=top;spacingLeft=4;spacingRight=4;overflow=hidden;rotatable=0;points=[[0,0.5],[1,0.5]];portConstraint=eastwest;whiteSpace=wrap;html=1;" vertex="1" parent="SE_fmQJEgkqWt3eJjdSE-60">
          <mxGeometry y="60" width="240" height="130" as="geometry" />
        </mxCell>
        <mxCell id="SE_fmQJEgkqWt3eJjdSE-125" style="edgeStyle=orthogonalEdgeStyle;rounded=0;orthogonalLoop=1;jettySize=auto;html=1;endArrow=diamondThin;endFill=0;" edge="1" parent="WIyWlLk6GJQsqaUBKTNV-1" source="SE_fmQJEgkqWt3eJjdSE-80" target="SE_fmQJEgkqWt3eJjdSE-110">
          <mxGeometry relative="1" as="geometry">
            <Array as="points">
              <mxPoint x="1760" y="438" />
              <mxPoint x="1760" y="739" />
            </Array>
          </mxGeometry>
        </mxCell>
        <mxCell id="SE_fmQJEgkqWt3eJjdSE-127" style="edgeStyle=orthogonalEdgeStyle;rounded=0;orthogonalLoop=1;jettySize=auto;html=1;endArrow=diamondThin;endFill=0;" edge="1" parent="WIyWlLk6GJQsqaUBKTNV-1" source="SE_fmQJEgkqWt3eJjdSE-80" target="SE_fmQJEgkqWt3eJjdSE-122">
          <mxGeometry relative="1" as="geometry">
            <Array as="points">
              <mxPoint x="1760" y="438" />
              <mxPoint x="1760" y="799" />
            </Array>
          </mxGeometry>
        </mxCell>
        <mxCell id="SE_fmQJEgkqWt3eJjdSE-80" value="&lt;p style=&quot;margin:0px;margin-top:4px;text-align:center;&quot;&gt;&lt;i&gt;&amp;lt;&amp;lt;Interface&amp;gt;&amp;gt;&lt;/i&gt;&lt;br&gt;&lt;b&gt;FilmSessionDao&lt;/b&gt;&lt;br&gt;&lt;/p&gt;&lt;hr size=&quot;1&quot;&gt;&lt;hr size=&quot;1&quot;&gt;&lt;p style=&quot;margin:0px;margin-left:4px;&quot;&gt;+ findById(Long): FilmSession&lt;/p&gt;&lt;p style=&quot;margin:0px;margin-left:4px;&quot;&gt;&lt;br&gt;&lt;/p&gt;&lt;p style=&quot;margin:0px;margin-left:4px;&quot;&gt;+ removeById(Long): Boolean&lt;/p&gt;&lt;p style=&quot;margin:0px;margin-left:4px;&quot;&gt;&lt;br&gt;&lt;/p&gt;&lt;p style=&quot;margin:0px;margin-left:4px;&quot;&gt;+ save(FilmSession): Void&lt;/p&gt;&lt;p style=&quot;margin:0px;margin-left:4px;&quot;&gt;&lt;br&gt;&lt;/p&gt;&lt;p style=&quot;margin:0px;margin-left:4px;&quot;&gt;+ listExisting(): List&amp;lt;FilmSession&amp;gt;&lt;br&gt;&lt;/p&gt;" style="verticalAlign=top;align=left;overflow=fill;fontSize=12;fontFamily=Helvetica;html=1;whiteSpace=wrap;" vertex="1" parent="WIyWlLk6GJQsqaUBKTNV-1">
          <mxGeometry x="1860" y="348" width="240" height="180" as="geometry" />
        </mxCell>
        <mxCell id="SE_fmQJEgkqWt3eJjdSE-81" style="edgeStyle=orthogonalEdgeStyle;rounded=0;orthogonalLoop=1;jettySize=auto;html=1;dashed=1;endArrow=block;endFill=0;" edge="1" source="SE_fmQJEgkqWt3eJjdSE-82" target="SE_fmQJEgkqWt3eJjdSE-80" parent="WIyWlLk6GJQsqaUBKTNV-1">
          <mxGeometry relative="1" as="geometry" />
        </mxCell>
        <mxCell id="SE_fmQJEgkqWt3eJjdSE-82" value="&lt;div&gt;FilmSessionDaoImpl&lt;/div&gt;" style="swimlane;fontStyle=1;align=center;verticalAlign=top;childLayout=stackLayout;horizontal=1;startSize=26;horizontalStack=0;resizeParent=1;resizeParentMax=0;resizeLast=0;collapsible=1;marginBottom=0;whiteSpace=wrap;html=1;" vertex="1" parent="WIyWlLk6GJQsqaUBKTNV-1">
          <mxGeometry x="1860" y="115" width="240" height="190" as="geometry" />
        </mxCell>
        <mxCell id="SE_fmQJEgkqWt3eJjdSE-83" value="- WORKDIR: String = &quot;film_sessions&quot;" style="text;strokeColor=none;fillColor=none;align=left;verticalAlign=top;spacingLeft=4;spacingRight=4;overflow=hidden;rotatable=0;points=[[0,0.5],[1,0.5]];portConstraint=eastwest;whiteSpace=wrap;html=1;" vertex="1" parent="SE_fmQJEgkqWt3eJjdSE-82">
          <mxGeometry y="26" width="240" height="26" as="geometry" />
        </mxCell>
        <mxCell id="SE_fmQJEgkqWt3eJjdSE-84" value="" style="line;strokeWidth=1;fillColor=none;align=left;verticalAlign=middle;spacingTop=-1;spacingLeft=3;spacingRight=3;rotatable=0;labelPosition=right;points=[];portConstraint=eastwest;strokeColor=inherit;" vertex="1" parent="SE_fmQJEgkqWt3eJjdSE-82">
          <mxGeometry y="52" width="240" height="8" as="geometry" />
        </mxCell>
        <mxCell id="SE_fmQJEgkqWt3eJjdSE-85" value="&amp;nbsp;+ findById(id: Long): FilmSession&lt;p style=&quot;margin:0px;margin-left:4px;&quot;&gt;&lt;br&gt;&lt;/p&gt;&lt;p style=&quot;margin:0px;margin-left:4px;&quot;&gt;+ removeById(id: Long): Boolean&lt;/p&gt;&lt;p style=&quot;margin:0px;margin-left:4px;&quot;&gt;&lt;br&gt;&lt;/p&gt;&lt;p style=&quot;margin:0px;margin-left:4px;&quot;&gt;+ save(film:&amp;nbsp;FilmSession): Void&lt;/p&gt;&lt;p style=&quot;margin:0px;margin-left:4px;&quot;&gt;&lt;br&gt;&lt;/p&gt;+ listExisting(): List&amp;lt;FilmSession&amp;gt;" style="text;strokeColor=none;fillColor=none;align=left;verticalAlign=top;spacingLeft=4;spacingRight=4;overflow=hidden;rotatable=0;points=[[0,0.5],[1,0.5]];portConstraint=eastwest;whiteSpace=wrap;html=1;" vertex="1" parent="SE_fmQJEgkqWt3eJjdSE-82">
          <mxGeometry y="60" width="240" height="130" as="geometry" />
        </mxCell>
        <mxCell id="SE_fmQJEgkqWt3eJjdSE-105" style="edgeStyle=orthogonalEdgeStyle;rounded=0;orthogonalLoop=1;jettySize=auto;html=1;dashed=1;endArrow=open;endFill=0;" edge="1" parent="WIyWlLk6GJQsqaUBKTNV-1" source="SE_fmQJEgkqWt3eJjdSE-92" target="SE_fmQJEgkqWt3eJjdSE-80">
          <mxGeometry relative="1" as="geometry" />
        </mxCell>
        <mxCell id="SE_fmQJEgkqWt3eJjdSE-92" value="FilmSession" style="swimlane;fontStyle=1;align=center;verticalAlign=top;childLayout=stackLayout;horizontal=1;startSize=26;horizontalStack=0;resizeParent=1;resizeParentMax=0;resizeLast=0;collapsible=1;marginBottom=0;whiteSpace=wrap;html=1;" vertex="1" parent="WIyWlLk6GJQsqaUBKTNV-1">
          <mxGeometry x="2190" y="120" width="300" height="270" as="geometry" />
        </mxCell>
        <mxCell id="SE_fmQJEgkqWt3eJjdSE-93" value="+ id: Long&lt;br&gt;&lt;br&gt;+ start: LocalDateTime&lt;br&gt;&lt;br&gt;+ film: Film&lt;br&gt;&lt;div&gt;&lt;br&gt;&lt;/div&gt;&lt;div&gt;+ theatreState: TheatreState&lt;/div&gt;&lt;div&gt;&lt;br&gt;&lt;/div&gt;&lt;div&gt;+ register: MutableList&amp;lt;Pair&amp;lt;Int,Int&amp;gt;&amp;gt;&lt;/div&gt;" style="text;strokeColor=none;fillColor=none;align=left;verticalAlign=top;spacingLeft=4;spacingRight=4;overflow=hidden;rotatable=0;points=[[0,0.5],[1,0.5]];portConstraint=eastwest;whiteSpace=wrap;html=1;" vertex="1" parent="SE_fmQJEgkqWt3eJjdSE-92">
          <mxGeometry y="26" width="300" height="144" as="geometry" />
        </mxCell>
        <mxCell id="SE_fmQJEgkqWt3eJjdSE-94" value="" style="line;strokeWidth=1;fillColor=none;align=left;verticalAlign=middle;spacingTop=-1;spacingLeft=3;spacingRight=3;rotatable=0;labelPosition=right;points=[];portConstraint=eastwest;strokeColor=inherit;" vertex="1" parent="SE_fmQJEgkqWt3eJjdSE-92">
          <mxGeometry y="170" width="300" height="8" as="geometry" />
        </mxCell>
        <mxCell id="SE_fmQJEgkqWt3eJjdSE-95" value="&lt;div&gt;+ isGoing(timeNow: LocalDateTime): Boolean&lt;/div&gt;&lt;div&gt;&lt;br&gt;&lt;/div&gt;&lt;div&gt;+ isRegistered(row: Int, place: Int): Boolean&lt;/div&gt;&lt;div&gt;&lt;br&gt;&lt;/div&gt;&lt;div&gt;+ register(row: Int, place: Int, key: String)&lt;br&gt;&lt;/div&gt;" style="text;strokeColor=none;fillColor=none;align=left;verticalAlign=top;spacingLeft=4;spacingRight=4;overflow=hidden;rotatable=0;points=[[0,0.5],[1,0.5]];portConstraint=eastwest;whiteSpace=wrap;html=1;" vertex="1" parent="SE_fmQJEgkqWt3eJjdSE-92">
          <mxGeometry y="178" width="300" height="92" as="geometry" />
        </mxCell>
        <mxCell id="SE_fmQJEgkqWt3eJjdSE-104" style="edgeStyle=orthogonalEdgeStyle;rounded=0;orthogonalLoop=1;jettySize=auto;html=1;endArrow=diamondThin;endFill=0;" edge="1" parent="WIyWlLk6GJQsqaUBKTNV-1" source="SE_fmQJEgkqWt3eJjdSE-98" target="SE_fmQJEgkqWt3eJjdSE-93">
          <mxGeometry relative="1" as="geometry" />
        </mxCell>
        <mxCell id="SE_fmQJEgkqWt3eJjdSE-98" value="TheatreState" style="swimlane;fontStyle=1;align=center;verticalAlign=top;childLayout=stackLayout;horizontal=1;startSize=26;horizontalStack=0;resizeParent=1;resizeParentMax=0;resizeLast=0;collapsible=1;marginBottom=0;whiteSpace=wrap;html=1;" vertex="1" parent="WIyWlLk6GJQsqaUBKTNV-1">
          <mxGeometry x="2550" y="303" width="300" height="270" as="geometry" />
        </mxCell>
        <mxCell id="SE_fmQJEgkqWt3eJjdSE-99" value="+ rows: Int&lt;br&gt;&lt;br&gt;+ width: Int&lt;br&gt;&lt;br&gt;+ places: Array&amp;lt;Array&amp;lt;Pair&amp;lt;PlaceState, String&amp;gt;&amp;gt;&amp;gt;" style="text;strokeColor=none;fillColor=none;align=left;verticalAlign=top;spacingLeft=4;spacingRight=4;overflow=hidden;rotatable=0;points=[[0,0.5],[1,0.5]];portConstraint=eastwest;whiteSpace=wrap;html=1;" vertex="1" parent="SE_fmQJEgkqWt3eJjdSE-98">
          <mxGeometry y="26" width="300" height="94" as="geometry" />
        </mxCell>
        <mxCell id="SE_fmQJEgkqWt3eJjdSE-100" value="" style="line;strokeWidth=1;fillColor=none;align=left;verticalAlign=middle;spacingTop=-1;spacingLeft=3;spacingRight=3;rotatable=0;labelPosition=right;points=[];portConstraint=eastwest;strokeColor=inherit;" vertex="1" parent="SE_fmQJEgkqWt3eJjdSE-98">
          <mxGeometry y="120" width="300" height="8" as="geometry" />
        </mxCell>
        <mxCell id="SE_fmQJEgkqWt3eJjdSE-101" value="- validateOrException(row: Int, place: Int): Void&lt;br&gt;&lt;br&gt;&lt;div&gt;+ isPlaceSold(row: Int, place: Int): Boolean&lt;/div&gt;&lt;div&gt;&lt;br&gt;&lt;/div&gt;&lt;div&gt;+ placeFree(row: Int, place: Int): Void&lt;/div&gt;&lt;div&gt;&lt;br&gt;&lt;/div&gt;&lt;div&gt;+ verifyPlace(row: Int, place: Int, key: String): Boolean&lt;/div&gt;&lt;div&gt;&lt;br&gt;&lt;/div&gt;&lt;div&gt;+ placeSale(row: Int, place: Int, key: String): Void&lt;br&gt;&lt;/div&gt;" style="text;strokeColor=none;fillColor=none;align=left;verticalAlign=top;spacingLeft=4;spacingRight=4;overflow=hidden;rotatable=0;points=[[0,0.5],[1,0.5]];portConstraint=eastwest;whiteSpace=wrap;html=1;" vertex="1" parent="SE_fmQJEgkqWt3eJjdSE-98">
          <mxGeometry y="128" width="300" height="142" as="geometry" />
        </mxCell>
        <mxCell id="SE_fmQJEgkqWt3eJjdSE-134" style="edgeStyle=orthogonalEdgeStyle;rounded=0;orthogonalLoop=1;jettySize=auto;html=1;dashed=1;endArrow=open;endFill=0;" edge="1" parent="WIyWlLk6GJQsqaUBKTNV-1" source="SE_fmQJEgkqWt3eJjdSE-102" target="SE_fmQJEgkqWt3eJjdSE-101">
          <mxGeometry relative="1" as="geometry" />
        </mxCell>
        <mxCell id="SE_fmQJEgkqWt3eJjdSE-102" value="&lt;p style=&quot;margin:0px;margin-top:4px;text-align:center;&quot;&gt;&lt;i&gt;&amp;lt;&amp;lt;Enum&amp;gt;&amp;gt;&lt;/i&gt;&lt;br&gt;&lt;b&gt;PlaceState&lt;/b&gt;&lt;br&gt;&lt;/p&gt;&lt;hr size=&quot;1&quot;&gt;&lt;hr size=&quot;1&quot;&gt;&amp;nbsp;&amp;nbsp;&amp;nbsp; FREE, SOLD" style="verticalAlign=top;align=left;overflow=fill;fontSize=12;fontFamily=Helvetica;html=1;whiteSpace=wrap;" vertex="1" parent="WIyWlLk6GJQsqaUBKTNV-1">
          <mxGeometry x="2360" y="460" width="100" height="85" as="geometry" />
        </mxCell>
        <mxCell id="SE_fmQJEgkqWt3eJjdSE-106" value="&lt;p style=&quot;margin:0px;margin-top:4px;text-align:center;&quot;&gt;&lt;i&gt;&amp;lt;&amp;lt;Interface&amp;gt;&amp;gt;&lt;/i&gt;&lt;br&gt;&lt;b&gt;FilmService&lt;/b&gt;&lt;br&gt;&lt;/p&gt;&lt;hr size=&quot;1&quot;&gt;&lt;hr size=&quot;1&quot;&gt;&lt;p style=&quot;margin:0px;margin-left:4px;&quot;&gt;+ updateFilmTitleById(Long, String): Film&lt;br&gt;&lt;/p&gt;&lt;p style=&quot;margin:0px;margin-left:4px;&quot;&gt;&lt;br&gt;&lt;/p&gt;&lt;p style=&quot;margin:0px;margin-left:4px;&quot;&gt;+ updateFilmDescriptionById(Long, String): Film&lt;/p&gt;&lt;p style=&quot;margin:0px;margin-left:4px;&quot;&gt;&lt;br&gt;&lt;/p&gt;&lt;p style=&quot;margin:0px;margin-left:4px;&quot;&gt;+ updateFilmCostById(Long, Int): Film&lt;/p&gt;&lt;p style=&quot;margin:0px;margin-left:4px;&quot;&gt;&lt;br&gt;&lt;/p&gt;&lt;p style=&quot;margin:0px;margin-left:4px;&quot;&gt;+ updateFilmLengthById(Long, Long): Film&lt;/p&gt;&lt;p style=&quot;margin:0px;margin-left:4px;&quot;&gt;&lt;br&gt;&lt;/p&gt;&lt;p style=&quot;margin:0px;margin-left:4px;&quot;&gt;+ createFilm(String, String, Long, Int): Film&lt;/p&gt;&lt;p style=&quot;margin:0px;margin-left:4px;&quot;&gt;&lt;br&gt;&lt;/p&gt;&lt;p style=&quot;margin:0px;margin-left:4px;&quot;&gt;+ removeFilmById(Long): Boolean&lt;br&gt;&lt;/p&gt;" style="verticalAlign=top;align=left;overflow=fill;fontSize=12;fontFamily=Helvetica;html=1;whiteSpace=wrap;" vertex="1" parent="WIyWlLk6GJQsqaUBKTNV-1">
          <mxGeometry x="1315.5" y="890" width="289" height="230" as="geometry" />
        </mxCell>
        <mxCell id="SE_fmQJEgkqWt3eJjdSE-117" style="edgeStyle=orthogonalEdgeStyle;rounded=0;orthogonalLoop=1;jettySize=auto;html=1;dashed=1;endArrow=block;endFill=0;" edge="1" parent="WIyWlLk6GJQsqaUBKTNV-1" source="SE_fmQJEgkqWt3eJjdSE-107" target="SE_fmQJEgkqWt3eJjdSE-106">
          <mxGeometry relative="1" as="geometry" />
        </mxCell>
        <mxCell id="SE_fmQJEgkqWt3eJjdSE-107" value="FilmServiceImpl" style="swimlane;fontStyle=1;align=center;verticalAlign=top;childLayout=stackLayout;horizontal=1;startSize=26;horizontalStack=0;resizeParent=1;resizeParentMax=0;resizeLast=0;collapsible=1;marginBottom=0;whiteSpace=wrap;html=1;" vertex="1" parent="WIyWlLk6GJQsqaUBKTNV-1">
          <mxGeometry x="1260" y="560" width="400" height="270" as="geometry" />
        </mxCell>
        <mxCell id="SE_fmQJEgkqWt3eJjdSE-108" value="&lt;div&gt;- fDao: FilmDao&lt;br&gt;&lt;br&gt;- fsDao: FilmSessionDao&lt;br&gt;&lt;/div&gt;" style="text;strokeColor=none;fillColor=none;align=left;verticalAlign=top;spacingLeft=4;spacingRight=4;overflow=hidden;rotatable=0;points=[[0,0.5],[1,0.5]];portConstraint=eastwest;whiteSpace=wrap;html=1;" vertex="1" parent="SE_fmQJEgkqWt3eJjdSE-107">
          <mxGeometry y="26" width="400" height="54" as="geometry" />
        </mxCell>
        <mxCell id="SE_fmQJEgkqWt3eJjdSE-109" value="" style="line;strokeWidth=1;fillColor=none;align=left;verticalAlign=middle;spacingTop=-1;spacingLeft=3;spacingRight=3;rotatable=0;labelPosition=right;points=[];portConstraint=eastwest;strokeColor=inherit;" vertex="1" parent="SE_fmQJEgkqWt3eJjdSE-107">
          <mxGeometry y="80" width="400" height="8" as="geometry" />
        </mxCell>
        <mxCell id="SE_fmQJEgkqWt3eJjdSE-110" value="&amp;nbsp;+ updateFilmTitleById(id: Long, title: String): Film&lt;br&gt;&lt;p style=&quot;margin:0px;margin-left:4px;&quot;&gt;&lt;br&gt;&lt;/p&gt;&lt;p style=&quot;margin:0px;margin-left:4px;&quot;&gt;+ updateFilmDescriptionById(id: Long, description: String): Film&lt;/p&gt;&lt;p style=&quot;margin:0px;margin-left:4px;&quot;&gt;&lt;br&gt;&lt;/p&gt;&lt;p style=&quot;margin:0px;margin-left:4px;&quot;&gt;+ updateFilmCostById(id: Long, cost: Int): Film&lt;/p&gt;&lt;p style=&quot;margin:0px;margin-left:4px;&quot;&gt;&lt;br&gt;&lt;/p&gt;&lt;p style=&quot;margin:0px;margin-left:4px;&quot;&gt;+ updateFilmLengthById(id: Long, length: Long): Film&lt;/p&gt;&lt;p style=&quot;margin:0px;margin-left:4px;&quot;&gt;&lt;br&gt;&lt;/p&gt;&lt;p style=&quot;margin:0px;margin-left:4px;&quot;&gt;+ createFilm(title: String, description: String, length: Long, cost: Int): Film&lt;/p&gt;&lt;p style=&quot;margin:0px;margin-left:4px;&quot;&gt;&lt;br&gt;&lt;/p&gt;+ removeFilmById(id: Long): Boolean" style="text;strokeColor=none;fillColor=none;align=left;verticalAlign=top;spacingLeft=4;spacingRight=4;overflow=hidden;rotatable=0;points=[[0,0.5],[1,0.5]];portConstraint=eastwest;whiteSpace=wrap;html=1;" vertex="1" parent="SE_fmQJEgkqWt3eJjdSE-107">
          <mxGeometry y="88" width="400" height="182" as="geometry" />
        </mxCell>
        <mxCell id="SE_fmQJEgkqWt3eJjdSE-118" value="&lt;p style=&quot;margin:0px;margin-top:4px;text-align:center;&quot;&gt;&lt;i&gt;&amp;lt;&amp;lt;Interface&amp;gt;&amp;gt;&lt;/i&gt;&lt;br&gt;&lt;b&gt;FilmSessionService&lt;/b&gt;&lt;br&gt;&lt;/p&gt;&lt;hr size=&quot;1&quot;&gt;&lt;hr size=&quot;1&quot;&gt;&lt;p style=&quot;margin:0px;margin-left:4px;&quot;&gt;+ updateFilmSessionStartById(Long, LocalDateTime): FilmSession&lt;br&gt;&lt;/p&gt;&lt;p style=&quot;margin:0px;margin-left:4px;&quot;&gt;&lt;br&gt;&lt;/p&gt;&lt;p style=&quot;margin:0px;margin-left:4px;&quot;&gt;+ createFilmSession(LocalDateTime, Film): FilmSession&lt;/p&gt;&lt;p style=&quot;margin:0px;margin-left:4px;&quot;&gt;&lt;br&gt;&lt;/p&gt;&lt;p style=&quot;margin:0px;margin-left:4px;&quot;&gt;+ removeFilmSessionById(Long): Boolean&lt;/p&gt;&lt;p style=&quot;margin:0px;margin-left:4px;&quot;&gt;&lt;br&gt;&lt;/p&gt;&lt;p style=&quot;margin:0px;margin-left:4px;&quot;&gt;+ saleFilmSessionPlaceById(Long, Int, Int, String): Boolean&lt;/p&gt;&lt;p style=&quot;margin:0px;margin-left:4px;&quot;&gt;&lt;br&gt;&lt;/p&gt;&lt;p style=&quot;margin:0px;margin-left:4px;&quot;&gt;+ freeFilmSessionPlaceById(Long, Int, Int, String): Boolean&lt;/p&gt;&lt;p style=&quot;margin:0px;margin-left:4px;&quot;&gt;&lt;br&gt;&lt;/p&gt;&lt;p style=&quot;margin:0px;margin-left:4px;&quot;&gt;+ registerOnFilmSessionById(Long, Int, Int, String): Boolean&lt;br&gt;&lt;br&gt;+ representFilmSession(FilmSession): String&lt;br&gt;&lt;/p&gt;" style="verticalAlign=top;align=left;overflow=fill;fontSize=12;fontFamily=Helvetica;html=1;whiteSpace=wrap;" vertex="1" parent="WIyWlLk6GJQsqaUBKTNV-1">
          <mxGeometry x="1895" y="960" width="380" height="250" as="geometry" />
        </mxCell>
        <mxCell id="SE_fmQJEgkqWt3eJjdSE-123" style="edgeStyle=orthogonalEdgeStyle;rounded=0;orthogonalLoop=1;jettySize=auto;html=1;dashed=1;endArrow=block;endFill=0;" edge="1" parent="WIyWlLk6GJQsqaUBKTNV-1" source="SE_fmQJEgkqWt3eJjdSE-119" target="SE_fmQJEgkqWt3eJjdSE-118">
          <mxGeometry relative="1" as="geometry" />
        </mxCell>
        <mxCell id="SE_fmQJEgkqWt3eJjdSE-119" value="FilmSessionServiceImpl" style="swimlane;fontStyle=1;align=center;verticalAlign=top;childLayout=stackLayout;horizontal=1;startSize=26;horizontalStack=0;resizeParent=1;resizeParentMax=0;resizeLast=0;collapsible=1;marginBottom=0;whiteSpace=wrap;html=1;" vertex="1" parent="WIyWlLk6GJQsqaUBKTNV-1">
          <mxGeometry x="1860" y="640" width="450" height="260" as="geometry" />
        </mxCell>
        <mxCell id="SE_fmQJEgkqWt3eJjdSE-120" value="- dao: FilmSessionDao" style="text;strokeColor=none;fillColor=none;align=left;verticalAlign=top;spacingLeft=4;spacingRight=4;overflow=hidden;rotatable=0;points=[[0,0.5],[1,0.5]];portConstraint=eastwest;whiteSpace=wrap;html=1;" vertex="1" parent="SE_fmQJEgkqWt3eJjdSE-119">
          <mxGeometry y="26" width="450" height="24" as="geometry" />
        </mxCell>
        <mxCell id="SE_fmQJEgkqWt3eJjdSE-121" value="" style="line;strokeWidth=1;fillColor=none;align=left;verticalAlign=middle;spacingTop=-1;spacingLeft=3;spacingRight=3;rotatable=0;labelPosition=right;points=[];portConstraint=eastwest;strokeColor=inherit;" vertex="1" parent="SE_fmQJEgkqWt3eJjdSE-119">
          <mxGeometry y="50" width="450" height="8" as="geometry" />
        </mxCell>
        <mxCell id="SE_fmQJEgkqWt3eJjdSE-122" value="&lt;p style=&quot;margin:0px;margin-left:4px;&quot;&gt;+ updateFilmSessionStartById(id: Long, start: LocalDateTime): FilmSession&lt;br&gt;&lt;/p&gt;&lt;p style=&quot;margin:0px;margin-left:4px;&quot;&gt;&lt;br&gt;&lt;/p&gt;&lt;p style=&quot;margin:0px;margin-left:4px;&quot;&gt;+ createFilmSession(start: LocalDateTime, film: Film): FilmSession&lt;/p&gt;&lt;p style=&quot;margin:0px;margin-left:4px;&quot;&gt;&lt;br&gt;&lt;/p&gt;&lt;p style=&quot;margin:0px;margin-left:4px;&quot;&gt;+ removeFilmSessionById(id: Long): Boolean&lt;/p&gt;&lt;p style=&quot;margin:0px;margin-left:4px;&quot;&gt;&lt;br&gt;&lt;/p&gt;&lt;p style=&quot;margin:0px;margin-left:4px;&quot;&gt;+ saleFilmSessionPlaceById(id: Long, row: Int, place: Int, key: String): Boolean&lt;/p&gt;&lt;p style=&quot;margin:0px;margin-left:4px;&quot;&gt;&lt;br&gt;&lt;/p&gt;&lt;p style=&quot;margin:0px;margin-left:4px;&quot;&gt;+ freeFilmSessionPlaceById(id: Long, row: Int, place: Int, key: String): Boolean&lt;/p&gt;&lt;p style=&quot;margin:0px;margin-left:4px;&quot;&gt;&lt;br&gt;&lt;/p&gt;+ registerOnFilmSessionById(id: Long, row: Int, place: Int, key: String): Boolean&lt;br&gt;&lt;br&gt;+ representFilmSession(ds: FilmSession): String" style="text;strokeColor=none;fillColor=none;align=left;verticalAlign=top;spacingLeft=4;spacingRight=4;overflow=hidden;rotatable=0;points=[[0,0.5],[1,0.5]];portConstraint=eastwest;whiteSpace=wrap;html=1;" vertex="1" parent="SE_fmQJEgkqWt3eJjdSE-119">
          <mxGeometry y="58" width="450" height="202" as="geometry" />
        </mxCell>
        <mxCell id="SE_fmQJEgkqWt3eJjdSE-128" value="cinema" style="shape=umlFrame;whiteSpace=wrap;html=1;pointerEvents=0;" vertex="1" parent="WIyWlLk6GJQsqaUBKTNV-1">
          <mxGeometry x="1180" y="30" width="1810" height="1220" as="geometry" />
        </mxCell>
        <mxCell id="SE_fmQJEgkqWt3eJjdSE-136" style="edgeStyle=orthogonalEdgeStyle;rounded=0;orthogonalLoop=1;jettySize=auto;html=1;endArrow=diamondThin;endFill=0;" edge="1" parent="WIyWlLk6GJQsqaUBKTNV-1" source="SE_fmQJEgkqWt3eJjdSE-129" target="SE_fmQJEgkqWt3eJjdSE-130">
          <mxGeometry relative="1" as="geometry" />
        </mxCell>
        <mxCell id="SE_fmQJEgkqWt3eJjdSE-137" value="1" style="edgeLabel;html=1;align=center;verticalAlign=middle;resizable=0;points=[];" vertex="1" connectable="0" parent="SE_fmQJEgkqWt3eJjdSE-136">
          <mxGeometry x="0.7308" relative="1" as="geometry">
            <mxPoint x="-8" y="-16" as="offset" />
          </mxGeometry>
        </mxCell>
        <mxCell id="SE_fmQJEgkqWt3eJjdSE-138" value="*" style="edgeLabel;html=1;align=center;verticalAlign=middle;resizable=0;points=[];" vertex="1" connectable="0" parent="SE_fmQJEgkqWt3eJjdSE-136">
          <mxGeometry x="-0.6667" y="3" relative="1" as="geometry">
            <mxPoint x="12" y="-19" as="offset" />
          </mxGeometry>
        </mxCell>
        <mxCell id="SE_fmQJEgkqWt3eJjdSE-129" value="&lt;p style=&quot;margin:0px;margin-top:4px;text-align:center;&quot;&gt;&lt;i&gt;&amp;lt;&amp;lt;Interface&amp;gt;&amp;gt;&lt;/i&gt;&lt;br&gt;&lt;b&gt;ActingWidget&lt;/b&gt;&lt;br&gt;&lt;/p&gt;&lt;hr size=&quot;1&quot;&gt;&lt;hr size=&quot;1&quot;&gt;&lt;p style=&quot;margin:0px;margin-left:4px;&quot;&gt;+ openTitle: String&lt;br&gt;&lt;/p&gt;&lt;p style=&quot;margin:0px;margin-left:4px;&quot;&gt;&lt;br&gt;&lt;/p&gt;&lt;p style=&quot;margin:0px;margin-left:4px;&quot;&gt;+ run(): Boolean&lt;/p&gt;" style="verticalAlign=top;align=left;overflow=fill;fontSize=12;fontFamily=Helvetica;html=1;whiteSpace=wrap;" vertex="1" parent="WIyWlLk6GJQsqaUBKTNV-1">
          <mxGeometry x="860" y="591.5" width="120" height="110" as="geometry" />
        </mxCell>
        <mxCell id="SE_fmQJEgkqWt3eJjdSE-143" style="edgeStyle=orthogonalEdgeStyle;rounded=0;orthogonalLoop=1;jettySize=auto;html=1;endArrow=block;endFill=0;dashed=1;" edge="1" parent="WIyWlLk6GJQsqaUBKTNV-1" source="SE_fmQJEgkqWt3eJjdSE-130" target="SE_fmQJEgkqWt3eJjdSE-129">
          <mxGeometry relative="1" as="geometry">
            <Array as="points">
              <mxPoint x="790" y="670" />
              <mxPoint x="790" y="670" />
            </Array>
          </mxGeometry>
        </mxCell>
        <mxCell id="SE_fmQJEgkqWt3eJjdSE-130" value="BranchWidget" style="swimlane;fontStyle=1;align=center;verticalAlign=top;childLayout=stackLayout;horizontal=1;startSize=26;horizontalStack=0;resizeParent=1;resizeParentMax=0;resizeLast=0;collapsible=1;marginBottom=0;whiteSpace=wrap;html=1;" vertex="1" parent="WIyWlLk6GJQsqaUBKTNV-1">
          <mxGeometry x="520" y="586.5" width="210" height="120" as="geometry" />
        </mxCell>
        <mxCell id="SE_fmQJEgkqWt3eJjdSE-131" value="- actions: MutableList&amp;lt;ActingWidget&amp;gt;" style="text;strokeColor=none;fillColor=none;align=left;verticalAlign=top;spacingLeft=4;spacingRight=4;overflow=hidden;rotatable=0;points=[[0,0.5],[1,0.5]];portConstraint=eastwest;whiteSpace=wrap;html=1;" vertex="1" parent="SE_fmQJEgkqWt3eJjdSE-130">
          <mxGeometry y="26" width="210" height="26" as="geometry" />
        </mxCell>
        <mxCell id="SE_fmQJEgkqWt3eJjdSE-132" value="" style="line;strokeWidth=1;fillColor=none;align=left;verticalAlign=middle;spacingTop=-1;spacingLeft=3;spacingRight=3;rotatable=0;labelPosition=right;points=[];portConstraint=eastwest;strokeColor=inherit;" vertex="1" parent="SE_fmQJEgkqWt3eJjdSE-130">
          <mxGeometry y="52" width="210" height="8" as="geometry" />
        </mxCell>
        <mxCell id="SE_fmQJEgkqWt3eJjdSE-133" value="+ openTitle: String&lt;br&gt;&lt;br&gt;+ run(): Boolean" style="text;strokeColor=none;fillColor=none;align=left;verticalAlign=top;spacingLeft=4;spacingRight=4;overflow=hidden;rotatable=0;points=[[0,0.5],[1,0.5]];portConstraint=eastwest;whiteSpace=wrap;html=1;" vertex="1" parent="SE_fmQJEgkqWt3eJjdSE-130">
          <mxGeometry y="60" width="210" height="60" as="geometry" />
        </mxCell>
        <mxCell id="SE_fmQJEgkqWt3eJjdSE-153" style="edgeStyle=orthogonalEdgeStyle;rounded=0;orthogonalLoop=1;jettySize=auto;html=1;dashed=1;endArrow=block;endFill=0;" edge="1" parent="WIyWlLk6GJQsqaUBKTNV-1" source="SE_fmQJEgkqWt3eJjdSE-139" target="SE_fmQJEgkqWt3eJjdSE-129">
          <mxGeometry relative="1" as="geometry" />
        </mxCell>
        <mxCell id="SE_fmQJEgkqWt3eJjdSE-139" value="FilmSessionWidget" style="swimlane;fontStyle=1;align=center;verticalAlign=top;childLayout=stackLayout;horizontal=1;startSize=26;horizontalStack=0;resizeParent=1;resizeParentMax=0;resizeLast=0;collapsible=1;marginBottom=0;whiteSpace=wrap;html=1;" vertex="1" parent="WIyWlLk6GJQsqaUBKTNV-1">
          <mxGeometry x="535" y="740" width="180" height="178" as="geometry" />
        </mxCell>
        <mxCell id="SE_fmQJEgkqWt3eJjdSE-140" value="- fsId: Long&lt;br&gt;&lt;br&gt;- dao: FilmSessionDao&lt;br&gt;&lt;br&gt;- service: FilmSessionService" style="text;strokeColor=none;fillColor=none;align=left;verticalAlign=top;spacingLeft=4;spacingRight=4;overflow=hidden;rotatable=0;points=[[0,0.5],[1,0.5]];portConstraint=eastwest;whiteSpace=wrap;html=1;" vertex="1" parent="SE_fmQJEgkqWt3eJjdSE-139">
          <mxGeometry y="26" width="180" height="84" as="geometry" />
        </mxCell>
        <mxCell id="SE_fmQJEgkqWt3eJjdSE-141" value="" style="line;strokeWidth=1;fillColor=none;align=left;verticalAlign=middle;spacingTop=-1;spacingLeft=3;spacingRight=3;rotatable=0;labelPosition=right;points=[];portConstraint=eastwest;strokeColor=inherit;" vertex="1" parent="SE_fmQJEgkqWt3eJjdSE-139">
          <mxGeometry y="110" width="180" height="8" as="geometry" />
        </mxCell>
        <mxCell id="SE_fmQJEgkqWt3eJjdSE-142" value="+ openTitle: String&lt;br&gt;&lt;br&gt;+ run(): Boolean" style="text;strokeColor=none;fillColor=none;align=left;verticalAlign=top;spacingLeft=4;spacingRight=4;overflow=hidden;rotatable=0;points=[[0,0.5],[1,0.5]];portConstraint=eastwest;whiteSpace=wrap;html=1;" vertex="1" parent="SE_fmQJEgkqWt3eJjdSE-139">
          <mxGeometry y="118" width="180" height="60" as="geometry" />
        </mxCell>
        <mxCell id="SE_fmQJEgkqWt3eJjdSE-155" style="edgeStyle=orthogonalEdgeStyle;rounded=0;orthogonalLoop=1;jettySize=auto;html=1;dashed=1;endArrow=block;endFill=0;" edge="1" parent="WIyWlLk6GJQsqaUBKTNV-1" source="SE_fmQJEgkqWt3eJjdSE-144" target="SE_fmQJEgkqWt3eJjdSE-129">
          <mxGeometry relative="1" as="geometry" />
        </mxCell>
        <mxCell id="SE_fmQJEgkqWt3eJjdSE-144" value="FilmWidget" style="swimlane;fontStyle=1;align=center;verticalAlign=top;childLayout=stackLayout;horizontal=1;startSize=26;horizontalStack=0;resizeParent=1;resizeParentMax=0;resizeLast=0;collapsible=1;marginBottom=0;whiteSpace=wrap;html=1;" vertex="1" parent="WIyWlLk6GJQsqaUBKTNV-1">
          <mxGeometry x="535" y="942" width="180" height="208" as="geometry" />
        </mxCell>
        <mxCell id="SE_fmQJEgkqWt3eJjdSE-145" value="- filmId: Long&lt;br&gt;&lt;br&gt;- dao: FilmDao&lt;br&gt;&lt;br&gt;- service: FilmService&lt;br&gt;&lt;br&gt;- sessionDao: FilmSessionDao" style="text;strokeColor=none;fillColor=none;align=left;verticalAlign=top;spacingLeft=4;spacingRight=4;overflow=hidden;rotatable=0;points=[[0,0.5],[1,0.5]];portConstraint=eastwest;whiteSpace=wrap;html=1;" vertex="1" parent="SE_fmQJEgkqWt3eJjdSE-144">
          <mxGeometry y="26" width="180" height="114" as="geometry" />
        </mxCell>
        <mxCell id="SE_fmQJEgkqWt3eJjdSE-146" value="" style="line;strokeWidth=1;fillColor=none;align=left;verticalAlign=middle;spacingTop=-1;spacingLeft=3;spacingRight=3;rotatable=0;labelPosition=right;points=[];portConstraint=eastwest;strokeColor=inherit;" vertex="1" parent="SE_fmQJEgkqWt3eJjdSE-144">
          <mxGeometry y="140" width="180" height="8" as="geometry" />
        </mxCell>
        <mxCell id="SE_fmQJEgkqWt3eJjdSE-147" value="+ openTitle: String&lt;br&gt;&lt;br&gt;+ run(): Boolean" style="text;strokeColor=none;fillColor=none;align=left;verticalAlign=top;spacingLeft=4;spacingRight=4;overflow=hidden;rotatable=0;points=[[0,0.5],[1,0.5]];portConstraint=eastwest;whiteSpace=wrap;html=1;" vertex="1" parent="SE_fmQJEgkqWt3eJjdSE-144">
          <mxGeometry y="148" width="180" height="60" as="geometry" />
        </mxCell>
        <mxCell id="SE_fmQJEgkqWt3eJjdSE-156" style="edgeStyle=orthogonalEdgeStyle;rounded=0;orthogonalLoop=1;jettySize=auto;html=1;dashed=1;endArrow=block;endFill=0;entryX=0.5;entryY=1;entryDx=0;entryDy=0;" edge="1" parent="WIyWlLk6GJQsqaUBKTNV-1" source="SE_fmQJEgkqWt3eJjdSE-148" target="SE_fmQJEgkqWt3eJjdSE-129">
          <mxGeometry relative="1" as="geometry">
            <mxPoint x="940" y="730" as="targetPoint" />
          </mxGeometry>
        </mxCell>
        <mxCell id="SE_fmQJEgkqWt3eJjdSE-148" value="TicketsWidget" style="swimlane;fontStyle=1;align=center;verticalAlign=top;childLayout=stackLayout;horizontal=1;startSize=26;horizontalStack=0;resizeParent=1;resizeParentMax=0;resizeLast=0;collapsible=1;marginBottom=0;whiteSpace=wrap;html=1;" vertex="1" parent="WIyWlLk6GJQsqaUBKTNV-1">
          <mxGeometry x="465" y="1169" width="250" height="158" as="geometry" />
        </mxCell>
        <mxCell id="SE_fmQJEgkqWt3eJjdSE-149" value="- filmSessionDao: FilmSessionDao&lt;br&gt;&lt;br&gt;- filmSessionService: FilmSessionServrice" style="text;strokeColor=none;fillColor=none;align=left;verticalAlign=top;spacingLeft=4;spacingRight=4;overflow=hidden;rotatable=0;points=[[0,0.5],[1,0.5]];portConstraint=eastwest;whiteSpace=wrap;html=1;" vertex="1" parent="SE_fmQJEgkqWt3eJjdSE-148">
          <mxGeometry y="26" width="250" height="64" as="geometry" />
        </mxCell>
        <mxCell id="SE_fmQJEgkqWt3eJjdSE-150" value="" style="line;strokeWidth=1;fillColor=none;align=left;verticalAlign=middle;spacingTop=-1;spacingLeft=3;spacingRight=3;rotatable=0;labelPosition=right;points=[];portConstraint=eastwest;strokeColor=inherit;" vertex="1" parent="SE_fmQJEgkqWt3eJjdSE-148">
          <mxGeometry y="90" width="250" height="8" as="geometry" />
        </mxCell>
        <mxCell id="SE_fmQJEgkqWt3eJjdSE-151" value="+ openTitle: String&lt;br&gt;&lt;br&gt;+ run(): Boolean" style="text;strokeColor=none;fillColor=none;align=left;verticalAlign=top;spacingLeft=4;spacingRight=4;overflow=hidden;rotatable=0;points=[[0,0.5],[1,0.5]];portConstraint=eastwest;whiteSpace=wrap;html=1;" vertex="1" parent="SE_fmQJEgkqWt3eJjdSE-148">
          <mxGeometry y="98" width="250" height="60" as="geometry" />
        </mxCell>
        <mxCell id="SE_fmQJEgkqWt3eJjdSE-157" value="cui" style="shape=umlFrame;whiteSpace=wrap;html=1;pointerEvents=0;" vertex="1" parent="WIyWlLk6GJQsqaUBKTNV-1">
          <mxGeometry x="370" y="544" width="660" height="816" as="geometry" />
        </mxCell>
        <mxCell id="SE_fmQJEgkqWt3eJjdSE-158" value="&lt;h1&gt;Class diagram&lt;br&gt;&lt;/h1&gt;&lt;p&gt;Author: Shamaev Onar&lt;br&gt;Group: BPI-227&lt;br&gt;Task: PHW-1&lt;br&gt;&lt;/p&gt;" style="text;html=1;strokeColor=none;fillColor=none;spacing=5;spacingTop=-20;whiteSpace=wrap;overflow=hidden;rounded=0;" vertex="1" parent="WIyWlLk6GJQsqaUBKTNV-1">
          <mxGeometry x="100" y="550" width="190" height="120" as="geometry" />
        </mxCell>
      </root>
    </mxGraphModel>
  </diagram>
</mxfile>
